<svg aria-hidden="true" style="position: absolute; width: 0; height: 0; overflow: hidden;" version="1.1" xmlns="http://www.w3.org/2000/svg" xmlns:xlink="http://www.w3.org/1999/xlink">
<defs>
<symbol id="icon-twitter" viewBox="0 0 32 32">
<path  d="M32 6.078c-1.1 0.493-2.376 0.857-3.713 1.028l-0.068 0.007c1.36-0.817 2.382-2.078 2.873-3.579l0.013-0.046c-1.197 0.722-2.591 1.273-4.076 1.573l-0.084 0.014c-1.2-1.279-2.9-2.076-4.787-2.076-3.622 0-6.558 2.936-6.558 6.558 0 0.001 0 0.003 0 0.004v-0c0 0.52 0.043 1.021 0.152 1.496-5.454-0.266-10.28-2.88-13.522-6.861-0.564 0.949-0.899 2.092-0.902 3.313v0.001c0 2.272 1.171 4.286 2.914 5.451-1.091-0.030-2.107-0.325-2.994-0.823l0.033 0.017v0.072c0.003 3.165 2.236 5.807 5.213 6.44l0.043 0.008c-0.499 0.136-1.071 0.215-1.662 0.215-0.020 0-0.041-0-0.061-0l0.003 0c-0.419 0-0.843-0.024-1.242-0.112 0.85 2.598 3.261 4.509 6.13 4.57-2.215 1.746-5.045 2.8-8.122 2.8-0.004 0-0.008 0-0.013 0h0.001c-0.018 0-0.040 0-0.062 0-0.531 0-1.055-0.034-1.569-0.099l0.061 0.006c2.826 1.846 6.287 2.944 10.004 2.944 0.021 0 0.042-0 0.063-0h-0.003c12.072 0 18.672-10 18.672-18.669 0-0.288-0.010-0.57-0.024-0.848 1.299-0.936 2.39-2.064 3.258-3.355l0.030-0.047z"></path>
</symbol>
<symbol id="icon-smartphone" viewBox="0 0 20 32">
<path  d="M17 0h-14c-1.654 0-3 1.346-3 3v26c0 1.654 1.346 3 3 3h14c1.654 0 3-1.346 3-3v-26c0-1.654-1.346-3-3-3zM3 2h14c0.552 0 1 0.448 1 1v0 21h-16v-21c0-0.552 0.448-1 1-1v0zM17 30h-14c-0.552 0-1-0.448-1-1v0-3h16v3c0 0.552-0.448 1-1 1v0z"></path>
<path  d="M4.708 27.478c0.18 0.163 0.293 0.399 0.293 0.66s-0.113 0.497-0.292 0.659l-0.001 0.001c-0.186 0.17-0.435 0.275-0.708 0.275s-0.522-0.104-0.709-0.275l0.001 0.001c-0.18-0.163-0.293-0.399-0.293-0.66s0.113-0.497 0.292-0.659l0.001-0.001c0.186-0.17 0.435-0.275 0.708-0.275s0.522 0.104 0.709 0.275l-0.001-0.001z"></path>
</symbol>
<symbol id="icon-linkedin" viewBox="0 0 32 32">
<path  d="M31.992 32h0.008v-11.738c0-5.741-1.235-10.163-7.947-10.163-3.227 0-5.392 1.77-6.277 3.45h-0.093v-2.914h-6.365v21.363h6.627v-10.578c0-2.786 0.528-5.48 3.978-5.48 3.398 0 3.45 3.179 3.45 5.658v10.402h6.619zM0.528 10.635h6.635v21.365h-6.635v-21.365zM3.843 0c-2.123 0-3.843 1.721-3.843 3.843v0c0 2.12 1.722 3.878 3.843 3.878 2.12 0 3.842-1.757 3.842-3.878s-1.72-3.841-3.841-3.843h-0z"></path>
</symbol>
<symbol id="icon-instagram" viewBox="0 0 32 32">
<path  d="M31.968 9.408c-0.074-1.701-0.349-2.869-0.742-3.882-0.424-1.111-1.054-2.059-1.85-2.837l-0.001-0.001c-0.78-0.792-1.724-1.419-2.778-1.827l-0.054-0.018c-1.019-0.394-2.181-0.667-3.882-0.742-1.712-0.082-2.256-0.101-6.602-0.101-4.344 0-4.888 0.019-6.595 0.094-1.699 0.074-2.869 0.349-3.88 0.742-1.112 0.424-2.060 1.054-2.839 1.85l-0.001 0.001c-0.791 0.78-1.418 1.724-1.825 2.778l-0.018 0.054c-0.395 1.019-0.669 2.181-0.744 3.882-0.082 1.712-0.101 2.256-0.101 6.602 0 4.344 0.019 4.888 0.094 6.595 0.075 1.701 0.35 2.869 0.744 3.882 0.426 1.11 1.055 2.057 1.849 2.837l0.001 0.001c0.8 0.813 1.77 1.443 2.832 1.843 1.019 0.395 2.182 0.67 3.882 0.744 1.707 0.075 2.251 0.094 6.595 0.094 4.346 0 4.89-0.019 6.595-0.094 1.701-0.074 2.869-0.349 3.882-0.742 2.157-0.85 3.833-2.526 4.664-4.628l0.019-0.055c0.394-1.019 0.669-2.182 0.744-3.882 0.075-1.707 0.093-2.251 0.093-6.595s-0.006-4.888-0.080-6.595zM29.088 22.474c-0.070 1.563-0.333 2.406-0.55 2.97-0.552 1.399-1.64 2.486-3.004 3.024l-0.036 0.012c-0.56 0.219-1.411 0.482-2.968 0.55-1.688 0.075-2.194 0.094-6.464 0.094-4.269 0-4.782-0.019-6.464-0.094-1.563-0.069-2.406-0.331-2.97-0.55-0.721-0.269-1.334-0.676-1.836-1.192l-0.001-0.001c-0.517-0.503-0.924-1.117-1.184-1.803l-0.011-0.034c-0.218-0.563-0.48-1.413-0.549-2.97-0.075-1.688-0.094-2.195-0.094-6.464 0-4.27 0.019-4.784 0.094-6.464 0.069-1.563 0.331-2.406 0.549-2.97 0.269-0.722 0.678-1.337 1.198-1.837l0.002-0.002c0.504-0.517 1.119-0.923 1.806-1.182l0.034-0.011c0.56-0.219 1.411-0.48 2.968-0.55 1.688-0.074 2.195-0.093 6.464-0.093 4.275 0 4.782 0.019 6.464 0.093 1.563 0.069 2.406 0.331 2.97 0.55 0.693 0.256 1.325 0.662 1.837 1.194 0.531 0.52 0.938 1.144 1.195 1.84 0.218 0.56 0.48 1.411 0.549 2.968 0.075 1.688 0.094 2.194 0.094 6.464 0 4.269-0.019 4.768-0.094 6.458z"></path>
<path  d="M16.059 7.782c-4.539 0.002-8.218 3.682-8.219 8.221v0c0 0 0 0.001 0 0.002 0 4.541 3.681 8.222 8.222 8.222s8.222-3.681 8.222-8.222c0-4.541-3.681-8.222-8.222-8.222-0.001 0-0.001 0-0.002 0h0zM16.059 21.334c-2.945-0-5.332-2.388-5.332-5.333s2.388-5.333 5.333-5.333c0 0 0.001 0 0.001 0h-0c2.946 0 5.334 2.388 5.334 5.334s-2.388 5.334-5.334 5.334v0zM26.525 7.458c0 1.060-0.86 1.92-1.92 1.92s-1.92-0.86-1.92-1.92v0c0-1.060 0.86-1.92 1.92-1.92s1.92 0.86 1.92 1.92v0z"></path>
</symbol>
<symbol id="icon-facebook" viewBox="0 0 32 32">
<path  d="M21.328 5.312h2.923v-5.088c-1.232-0.143-2.66-0.224-4.108-0.224-0.052 0-0.104 0-0.156 0l0.008-0c-4.213 0-7.099 2.65-7.099 7.52v4.48h-4.646v5.688h4.646v14.312h5.699v-14.31h4.459l0.707-5.688h-5.168v-3.922c0-1.643 0.443-2.768 2.734-2.768z"></path>
</symbol>
<symbol id="icon-envelope" viewBox="0 0 43 32">
<path  d="M38.667 0h-34.667c-2.205 0-4 1.795-4 4v24c0 2.205 1.795 4 4 4h34.667c2.205 0 4-1.795 4-4v-24c0-2.205-1.795-4-4-4zM38.667 2.667c0.181 0 0.355 0.037 0.512 0.104l-17.845 15.467-17.845-15.467c0.151-0.065 0.327-0.104 0.512-0.104h34.667zM38.667 29.333h-34.667c-0.736 0-1.333-0.597-1.333-1.333v0-22.413l17.792 15.421c0.233 0.203 0.539 0.327 0.875 0.327s0.642-0.124 0.876-0.328l-0.002 0.001 17.792-15.421v22.413c0 0.736-0.597 1.333-1.333 1.333v0z"></path>
</symbol>
<symbol id="icon-diagram" viewBox="0 0 64 64">
<path fill="#2196f3" style="fill: var(--color1, #2196f3)" d="M29.851 29.929h2.132v9.595h-2.132v-9.595zM38.38 34.194h2.132v5.33h-2.132v-5.33zM21.322 37.392h2.132v2.132h-2.132v-2.132zM14.926 36.325h2.132v3.198h-2.132v-3.198z"></path>
<path  d="M3.198 56.581h51.173c0 0 0.001 0 0.001 0 1.766 0 3.198-1.432 3.198-3.198v0-4.264c0-1.766-1.432-3.198-3.198-3.198v0h-1.066v-26.587l6.055-5.736c0.415 0.209 0.904 0.331 1.422 0.331 1.776 0 3.216-1.44 3.216-3.216s-1.44-3.216-3.216-3.216c-1.776 0-3.216 1.44-3.216 3.216 0 0.494 0.111 0.962 0.31 1.38l-0.008-0.020-4.562 4.325v-2.459c0-1.766-1.432-3.198-3.198-3.198v0h-42.645c-1.766 0-3.198 1.432-3.198 3.198v0 31.984h-1.066c-1.766 0-3.198 1.432-3.198 3.198v0 4.264c0 1.766 1.432 3.198 3.198 3.198v0zM60.768 9.673c0.589 0 1.066 0.477 1.066 1.066s-0.477 1.066-1.066 1.066v0c-0.589 0-1.066-0.477-1.066-1.066s0.477-1.066 1.066-1.066v0zM6.396 13.937c0-0.589 0.477-1.066 1.066-1.066h42.645c0.589 0 1.066 0.477 1.066 1.066v4.477l-2.132 2.026v-4.37c0-0.59-0.478-1.067-1.067-1.067h-38.379c-0.589 0-1.067 0.477-1.067 1.066v26.653c0 0.589 0.478 1.066 1.067 1.066h38.379c0.59 0 1.067-0.477 1.067-1.066v-19.349l2.132-2.021v24.567h-44.777v-31.982zM15.992 27.797c-0.003 0-0.006 0-0.009 0-1.766 0-3.198 1.432-3.198 3.198s1.432 3.198 3.198 3.198c0.865 0 1.649-0.343 2.225-0.9l-0.001 0.001 3.706 1.86c0.431 0.215 0.953 0.114 1.273-0.245l7.878-8.863 7.744 5.803c0.416 0.311 0.996 0.278 1.372-0.079l6.73-6.375v16.262h-36.247v-24.521h36.247v5.321l-7.543 7.143-7.808-5.854c-0.176-0.133-0.399-0.214-0.641-0.214-0.316 0-0.6 0.138-0.796 0.356l-0.001 0.001-7.985 8.986-2.985-1.493c0.021-0.128 0.035-0.257 0.040-0.387 0-1.766-1.432-3.198-3.198-3.198v0zM17.058 30.995c0 0.589-0.477 1.066-1.066 1.066s-1.066-0.477-1.066-1.066v0c0-0.589 0.477-1.066 1.066-1.066s1.066 0.477 1.066 1.066v0zM23.454 48.053h10.661v1.066c0 0.589-0.476 1.066-1.065 1.066h-8.529c-0.589 0-1.066-0.477-1.066-1.066v0-1.066zM2.133 49.119c0-0.589 0.476-1.066 1.065-1.066h18.124v1.066c0 1.766 1.432 3.198 3.198 3.198v0h8.529c1.766 0 3.198-1.432 3.198-3.198v0-1.066h18.124c0.589 0 1.066 0.477 1.066 1.066v4.264c0 0.589-0.477 1.066-1.066 1.066h-51.173c-0 0-0.001 0-0.001 0-0.589 0-1.066-0.477-1.066-1.066 0 0 0 0 0 0v0-4.264z"></path>
</symbol>
<symbol id="icon-clock" viewBox="0 0 64 64">
<path  d="M62.593 30.602c-0.003-16.904-13.71-30.606-30.616-30.602s-30.606 13.711-30.602 30.616c0.004 13.575 8.844 25.085 21.082 29.090l0.216 0.061c0.122 0.038 0.247 0.058 0.375 0.058 0.24 0 0.476-0.065 0.684-0.187 0.271-0.16 0.472-0.414 0.567-0.713l7.729-24.5c2.107-0.007 3.813-1.717 3.813-3.825 0-2.113-1.713-3.825-3.825-3.825-0.606 0-1.18 0.141-1.689 0.392l0.022-0.010-10.212-10.213c-0.229-0.221-0.541-0.357-0.885-0.357-0.704 0-1.275 0.571-1.275 1.275 0 0.344 0.136 0.656 0.358 0.886l-0-0 10.206 10.218c-0.241 0.482-0.383 1.050-0.383 1.651 0 1.203 0.566 2.274 1.447 2.961l0.008 0.006-7.365 23.346c-14.555-5.362-22.009-21.509-16.647-36.064s21.508-22.009 36.064-16.646c14.555 5.361 22.009 21.508 16.646 36.063-2.69 7.163-8.006 12.812-14.748 15.876l-0.176 0.072-0.795-3.749c-0.126-0.582-0.636-1.012-1.247-1.012-0.327 0-0.626 0.123-0.851 0.326l0.001-0.001-7.674 6.852c-0.264 0.235-0.429 0.575-0.429 0.953 0 0.567 0.37 1.047 0.881 1.213l0.009 0.002 9.797 3.127c0.117 0.039 0.251 0.062 0.391 0.062 0.704 0 1.275-0.571 1.275-1.275 0-0.095-0.010-0.187-0.030-0.276l0.002 0.008-0.782-3.677c11.055-4.749 18.657-15.543 18.657-28.113 0-0.023 0-0.046-0-0.069v0.004zM31.984 29.328c0.704 0 1.275 0.571 1.275 1.275s-0.571 1.275-1.275 1.275v0c-0.704 0-1.275-0.571-1.275-1.275s0.571-1.275 1.275-1.275v0zM36.185 59.056l4.368-3.897 1.206 5.68-5.574-1.784z"></path>
<path fill="#2196f3" style="fill: var(--color1, #2196f3)" d="M30.709 6.37v2.551c0 0.704 0.571 1.275 1.275 1.275s1.275-0.571 1.275-1.275v0-2.551c0-0.704-0.571-1.275-1.275-1.275s-1.275 0.571-1.275 1.275v0zM7.752 29.328c-0.704 0-1.275 0.571-1.275 1.275s0.571 1.275 1.275 1.275h2.551c0.704 0 1.275-0.571 1.275-1.275s-0.571-1.275-1.275-1.275h-2.551zM56.217 31.878c0.704 0 1.275-0.571 1.275-1.275s-0.571-1.275-1.275-1.275h-2.551c-0.704 0-1.275 0.571-1.275 1.275s0.571 1.275 1.275 1.275h2.551z"></path>
</symbol>
<symbol id="icon-client6" viewBox="0 0 134 64">
<path  d="M67.449 30.447c-0.542-0.699-0.869-1.589-0.869-2.556 0-0.096 0.003-0.191 0.010-0.285l-0.001 0.013v-4.102c0-1.256 0.284-2.212 0.856-2.866 0.569-0.654 1.549-0.979 2.937-0.976 1.304 0 2.231 0.279 2.778 0.835 0.597 0.71 0.889 1.577 0.822 2.452v0.964h-2.332v-0.977c0.007-0.319-0.014-0.639-0.068-0.954-0.040-0.231-0.161-0.428-0.332-0.566l-0.002-0.001c-0.21-0.14-0.468-0.224-0.745-0.224-0.035 0-0.070 0.001-0.104 0.004l0.005-0c-0.030-0.002-0.065-0.004-0.101-0.004-0.293 0-0.566 0.088-0.793 0.24l0.005-0.003c-0.193 0.155-0.331 0.371-0.385 0.619l-0.001 0.007c-0.059 0.281-0.093 0.604-0.093 0.935 0 0.028 0 0.056 0.001 0.083l-0-0.004v4.976c-0.037 0.479 0.067 0.96 0.299 1.397 0.121 0.15 0.279 0.266 0.459 0.336l0.007 0.003c0.137 0.055 0.296 0.086 0.461 0.086 0.050 0 0.099-0.003 0.147-0.008l-0.006 0.001c0.029 0.002 0.064 0.004 0.098 0.004 0.272 0 0.524-0.086 0.731-0.231l-0.004 0.003c0.18-0.15 0.306-0.36 0.348-0.599l0.001-0.006c0.054-0.33 0.080-0.664 0.073-0.997v-1.010h2.334v0.922c0.005 0.073 0.008 0.158 0.008 0.244 0 0.886-0.307 1.7-0.82 2.342l0.006-0.008c-0.536 0.609-1.451 0.913-2.793 0.913s-2.358-0.326-2.933-1.001zM77.165 30.49c-0.59-0.64-0.885-1.569-0.885-2.799v-4.314c0-1.219 0.294-2.14 0.885-2.766 0.589-0.626 1.574-0.937 2.957-0.934 1.372 0 2.352 0.313 2.943 0.934 0.589 0.626 0.889 1.547 0.889 2.766v4.312c0 1.219-0.299 2.153-0.899 2.796-0.599 0.641-1.574 0.963-2.933 0.963s-2.362-0.326-2.958-0.959zM81.209 29.454c0.212-0.398 0.307-0.838 0.28-1.276v-5.282c0.003-0.043 0.004-0.092 0.004-0.142 0-0.406-0.103-0.788-0.285-1.122l0.006 0.012c-0.124-0.153-0.284-0.27-0.469-0.34l-0.008-0.003c-0.136-0.053-0.293-0.084-0.457-0.084-0.056 0-0.111 0.004-0.165 0.010l0.006-0.001c-0.047-0.006-0.102-0.010-0.158-0.010-0.165 0-0.323 0.031-0.468 0.087l0.009-0.003c-0.193 0.073-0.355 0.191-0.478 0.342l-0.002 0.002c-0.213 0.39-0.309 0.819-0.28 1.252v5.305c-0.028 0.439 0.067 0.878 0.28 1.277 0.135 0.134 0.304 0.242 0.492 0.316 0.178 0.072 0.384 0.113 0.599 0.113s0.422-0.041 0.611-0.117l-0.011 0.004c0.189-0.074 0.356-0.182 0.492-0.316v-0.026zM86.761 19.803h2.512l1.889 7.957 1.934-7.957h2.443l0.247 11.486h-1.808l-0.193-7.983-1.865 7.983h-1.451l-1.931-8.013-0.179 8.013h-1.826l0.228-11.486zM98.603 19.803h3.914c2.254 0 3.382 1.087 3.382 3.261 0 2.082-1.188 3.123-3.561 3.12h-1.333v5.104h-2.416l0.014-11.487zM101.946 24.711c0.239 0.027 0.481 0.009 0.711-0.055 0.228-0.063 0.441-0.166 0.617-0.307 0.277-0.388 0.4-0.843 0.348-1.297 0.001-0.038 0.002-0.082 0.002-0.126 0-0.326-0.043-0.641-0.125-0.941l0.006 0.025c-0.038-0.122-0.099-0.228-0.178-0.317l0.001 0.001c-0.085-0.094-0.185-0.171-0.299-0.228l-0.006-0.003c-0.281-0.119-0.608-0.188-0.952-0.188-0.044 0-0.089 0.001-0.132 0.003l0.006-0h-0.937v3.433h0.939zM109.383 19.803h2.594l2.662 11.486h-2.253l-0.526-2.648h-2.314l-0.54 2.648h-2.285l2.661-11.486zM111.6 27.311l-0.905-4.821-0.903 4.821h1.806zM116.789 19.803h1.692l3.236 6.552v-6.552h2.005v11.486h-1.609l-3.257-6.841v6.841h-2.072l0.004-11.486zM128.418 26.908l-2.691-7.090h2.267l1.643 4.555 1.54-4.555h2.219l-2.658 7.091v4.379h-2.318v-4.38zM71.179 36.312v0.6h-1.971v4.668h-0.826v-4.668h-1.981v-0.6h4.779zM77.359 41.58h-0.639c-0.005 0-0.011 0.001-0.018 0.001-0.060 0-0.116-0.019-0.162-0.051l0.001 0.001c-0.046-0.029-0.082-0.070-0.105-0.119l-0.001-0.002-0.57-1.252h-2.735l-0.569 1.252c-0.018 0.056-0.049 0.104-0.088 0.142l-0 0c-0.046 0.031-0.103 0.050-0.165 0.050-0.005 0-0.010-0-0.015-0h-0.636l2.416-5.268h0.839l2.446 5.248zM73.358 39.625h2.28l-0.967-2.145c-0.061-0.135-0.122-0.3-0.171-0.469l-0.007-0.027c-0.034 0.1-0.063 0.196-0.091 0.28l-0.088 0.22-0.956 2.14zM81.523 41.062c0.152 0.007 0.303 0.007 0.455 0 0.129-0.011 0.259-0.033 0.385-0.063 0.118-0.024 0.235-0.057 0.348-0.095 0.107-0.037 0.213-0.084 0.323-0.129v-1.185h-0.966c-0.003 0-0.006 0-0.009 0-0.046 0-0.089-0.016-0.122-0.043l0 0c-0.015-0.011-0.028-0.025-0.037-0.042l-0-0.001c-0.007-0.014-0.011-0.030-0.011-0.048 0-0.002 0-0.003 0-0.005v0-0.404h1.874v2.020c-0.293 0.182-0.632 0.329-0.993 0.422l-0.025 0.006c-0.199 0.051-0.4 0.087-0.604 0.109-0.235 0.021-0.469 0.033-0.705 0.033-0.009 0-0.020 0-0.031 0-0.425 0-0.833-0.072-1.213-0.204l0.026 0.008c-0.372-0.129-0.694-0.316-0.971-0.554l0.004 0.003c-0.258-0.229-0.468-0.506-0.616-0.818l-0.007-0.015c-0.14-0.312-0.222-0.675-0.222-1.058 0-0.012 0-0.025 0-0.037v0.002c-0-0.010-0-0.021-0-0.032 0-0.386 0.080-0.753 0.225-1.086l-0.007 0.018c0.138-0.313 0.351-0.597 0.623-0.835 0.276-0.237 0.604-0.422 0.967-0.546 0.412-0.135 0.853-0.202 1.294-0.196 0.225 0 0.449 0.014 0.671 0.045 0.196 0.028 0.39 0.073 0.575 0.134 0.171 0.054 0.331 0.125 0.484 0.209 0.148 0.083 0.289 0.173 0.421 0.275l-0.232 0.326c-0.019 0.030-0.046 0.054-0.077 0.071l-0.001 0.001c-0.032 0.017-0.070 0.028-0.111 0.028h-0c-0.055-0.001-0.106-0.016-0.151-0.042l0.001 0.001c-0.098-0.046-0.176-0.088-0.251-0.133l0.014 0.008c-0.091-0.050-0.197-0.098-0.308-0.138l-0.015-0.005c-0.123-0.044-0.273-0.085-0.426-0.114l-0.019-0.003c-0.175-0.029-0.376-0.046-0.581-0.046-0.011 0-0.023 0-0.034 0h0.002c-0.009-0-0.019-0-0.029-0-0.323 0-0.634 0.054-0.924 0.153l0.020-0.006c-0.269 0.092-0.512 0.235-0.711 0.417-0.191 0.179-0.343 0.397-0.444 0.642l-0.004 0.012c-0.103 0.261-0.162 0.563-0.162 0.878s0.059 0.618 0.168 0.895l-0.006-0.017c0.105 0.247 0.27 0.474 0.484 0.664 0.198 0.181 0.438 0.323 0.704 0.417 0.307 0.091 0.633 0.127 0.957 0.104zM89.225 40.98h2.638v0.6h-3.443v-5.268h0.825l-0.019 4.668zM94.606 41.58h-0.825v-5.268h0.825v5.268zM97.68 36.338c0.050 0.024 0.092 0.056 0.126 0.095l0 0 3.531 3.971c-0.002-0.028-0.004-0.061-0.004-0.094s0.001-0.066 0.004-0.098l-0 0.004v-3.925h0.72v5.291h-0.415c-0.008 0.001-0.018 0.001-0.027 0.001-0.055 0-0.107-0.011-0.155-0.032l0.003 0.001c-0.050-0.026-0.093-0.060-0.129-0.099l-0-0-3.527-3.968v4.096h-0.691v-5.268h0.43c0.047 0 0.094 0.009 0.135 0.024zM108.14 36.312v0.579h-2.927v1.739h2.372v0.559h-2.372v1.799h2.927v0.579h-3.777v-5.255h3.777zM21.564 3.777l36.686 8.993v31.514l-36.686-8.988v-31.519zM19.21 1.089v35.736l41.387 10.149v-35.732l-41.385-10.152z"></path>
<path  d="M41.392 63.562l-41.392-10.157v-35.73l41.392 10.153v35.735z"></path>
<path  d="M19.897 3.372l36.207 8.88-15.397 13.298-36.214-8.885 15.404-13.295zM19.21 1.091l-19.21 16.583 41.392 10.155 19.206-16.587-41.387-10.15zM43.721 61.552l16.877-14.576-16.879-4.139v18.716z"></path>
</symbol>
<symbol id="icon-client5" viewBox="0 0 86 64">
<path  d="M6.478 52.746c0.332 0.376 0.508 0.847 0.5 1.33 0.002 0.030 0.003 0.065 0.003 0.101 0 0.297-0.067 0.579-0.186 0.832l0.005-0.012c-0.143 0.303-0.345 0.557-0.592 0.757l-0.004 0.003c-0.564 0.389-1.262 0.62-2.013 0.62-0.083 0-0.165-0.003-0.246-0.008l0.011 0.001h-3.954v-8.429h3.873c0.069-0.005 0.148-0.007 0.229-0.007 0.713 0 1.376 0.211 1.931 0.574l-0.013-0.008c0.251 0.193 0.449 0.436 0.579 0.708 0.131 0.275 0.189 0.572 0.173 0.871 0.022 0.463-0.136 0.922-0.449 1.288-0.301 0.335-0.716 0.566-1.179 0.659 0.524 0.087 0.998 0.343 1.334 0.722zM1.84 51.474h1.656c0.376 0.025 0.749-0.075 1.053-0.281 0.12-0.1 0.216-0.225 0.279-0.368l0.003-0.006c0.049-0.109 0.077-0.236 0.077-0.369 0-0.028-0.001-0.056-0.004-0.084l0 0.004c0.002-0.021 0.003-0.046 0.003-0.071 0-0.136-0.029-0.266-0.080-0.383l0.002 0.006c-0.065-0.149-0.159-0.275-0.275-0.375l-0.001-0.001c-0.267-0.181-0.597-0.29-0.952-0.29-0.046 0-0.092 0.002-0.138 0.005l0.006-0h-1.63v2.213zM4.71 54.706c0.129-0.102 0.232-0.232 0.302-0.38l0.003-0.006c0.056-0.118 0.088-0.257 0.088-0.403 0-0.023-0.001-0.047-0.003-0.070l0 0.003c0.001-0.018 0.002-0.040 0.002-0.062 0-0.151-0.034-0.293-0.094-0.421l0.003 0.006c-0.074-0.155-0.179-0.285-0.308-0.386l-0.002-0.002c-0.285-0.193-0.636-0.308-1.014-0.308-0.039 0-0.078 0.001-0.116 0.004l0.005-0h-1.736v2.319h1.759c0.395 0.020 0.787-0.082 1.111-0.293zM14.393 56.37l-2.153-3.295h-0.81v3.295h-1.853v-8.43h3.509c0.075-0.005 0.162-0.008 0.25-0.008 0.825 0 1.587 0.272 2.201 0.732l-0.010-0.007c0.49 0.458 0.787 1.061 0.835 1.699 0.004 0.053 0.006 0.115 0.006 0.177 0 0.614-0.219 1.178-0.583 1.617l0.003-0.004c-0.435 0.448-1.012 0.757-1.657 0.855l-0.016 0.002 2.294 3.369h-2.015zM11.43 51.926h1.516c1.053 0 1.58-0.425 1.58-1.276 0.001-0.020 0.002-0.044 0.002-0.068 0-0.16-0.032-0.312-0.091-0.45l0.003 0.008c-0.071-0.172-0.173-0.317-0.3-0.437l-0.001-0.001c-0.288-0.217-0.652-0.348-1.046-0.348-0.052 0-0.103 0.002-0.154 0.007l0.007-0h-1.533l0.018 2.565zM24.524 54.672h-3.693l-0.652 1.698h-1.943l3.391-8.336h2.101l3.378 8.336h-1.942l-0.639-1.697zM24.030 53.396l-1.349-3.558-1.349 3.558h2.699zM37.204 56.37h-1.838l-4.126-5.733v5.733h-1.836v-8.432h1.836l4.126 5.767v-5.767h1.838v8.432zM47.705 54.352c-0.381 0.636-0.96 1.155-1.665 1.487-0.715 0.337-1.553 0.533-2.437 0.533-0.053 0-0.105-0.001-0.158-0.002l0.008 0h-3.274v-8.43h3.275c0.046-0.001 0.1-0.002 0.154-0.002 0.881 0 1.718 0.191 2.471 0.535l-0.037-0.015c0.704 0.327 1.284 0.839 1.664 1.471 0.379 0.686 0.576 1.443 0.576 2.213 0 0.768-0.197 1.525-0.576 2.211zM45.599 54.151c0.499-0.523 0.808-1.231 0.813-2.012v-0.001c0-0.738-0.289-1.452-0.813-2.011-0.57-0.451-1.3-0.724-2.093-0.724-0.074 0-0.148 0.002-0.221 0.007l0.010-0.001h-1.277v5.458h1.277c0.063 0.004 0.137 0.007 0.211 0.007 0.793 0 1.522-0.272 2.1-0.728l-0.007 0.005zM25.676 1.044s23.745 8.208 23.243 20.086v20.091s-23.729-8.211-23.235-20.091l-0.008-20.086zM70.073 36.518c4.485-2.826 9.672-4.575 15.088-5.090v-6.291c-6.239 2.203-11.534 6.196-15.088 11.381z"></path>
<path  d="M67.38 38.414c3.67-6.768 10.033-11.99 17.781-14.593v-18.122s-33.818 11.693-33.103 28.608v28.604s1.507-0.523 3.878-1.503c0-0.914 0-1.837 0.109-2.764 0.699-7.852 4.776-15.129 11.335-20.231z"></path>
<path  d="M64.163 49.039c0.177-1.984 0.573-3.946 1.183-5.857-4.085 4.405-6.558 9.872-7.071 15.631-0.050 0.543-0.078 1.087-0.090 1.648 2.821-1.234 4.957-2.284 7.049-3.406l-0.545 0.267c-0.599-2.725-0.776-5.514-0.526-8.283zM65.509 49.142c-0.066 0.696-0.104 1.504-0.104 2.322 0 1.833 0.19 3.622 0.552 5.347l-0.030-0.169c9.239-5.063 19.622-12.884 19.22-22.336v-0.824c-6.602 0.677-12.777 3.318-17.58 7.521-1.059 2.38-1.791 5.141-2.052 8.038l-0.007 0.101z"></path>
</symbol>
<symbol id="icon-client4" viewBox="0 0 130 64">
<path  d="M20.032 19.966h-0.005c-3.654 0-6.616 2.632-6.616 5.88v0.003c0 3.247 2.962 5.88 6.616 5.88h0.005c3.654 0 6.616-2.633 6.616-5.88v-0.003c0-3.249-2.962-5.882-6.616-5.882zM68.869 18.088c-0.011-4.511-2.031-8.835-5.62-12.024-3.587-3.189-8.453-4.986-13.527-4.997-5.077 0.008-9.944 1.804-13.535 4.994-3.59 3.191-5.612 7.514-5.623 12.026v24.873s38.299-3.791 38.304-24.869v-0.005zM0 51.124c0.009 3.139 1.417 6.145 3.913 8.366 2.496 2.219 5.88 3.47 9.411 3.479 3.531-0.009 6.913-1.26 9.411-3.479 2.496-2.219 3.904-5.225 3.913-8.363v-17.307s-26.648 2.641-26.648 17.304zM13.324 54.223c-0.69 0-1.364-0.181-1.938-0.523-0.558-0.328-0.999-0.803-1.276-1.372l-0.008-0.019c-0.167-0.347-0.265-0.754-0.265-1.185 0-0.215 0.024-0.424 0.070-0.625l-0.004 0.019c0.134-0.602 0.466-1.155 0.954-1.588 0.486-0.427 1.094-0.728 1.764-0.846l0.022-0.003c0.205-0.038 0.441-0.060 0.682-0.060 0.479 0 0.937 0.086 1.361 0.244l-0.027-0.009c0.639 0.235 1.184 0.632 1.567 1.143 0.384 0.511 0.588 1.109 0.588 1.722 0.002 0.408-0.087 0.814-0.262 1.192-0.188 0.396-0.443 0.732-0.753 1.006l-0.003 0.003c-0.323 0.289-0.709 0.518-1.134 0.675-0.397 0.151-0.856 0.238-1.335 0.238-0.001 0-0.002 0-0.002 0h0v-0.012zM40.256 52.517h-2.572v2.656h-1.339v-6.502h4.233v1.085h-2.894v1.679h2.572v1.080zM46.693 52.070c0 0.64-0.113 1.201-0.338 1.682-0.227 0.483-0.552 0.853-0.975 1.117-0.398 0.247-0.88 0.394-1.397 0.394-0.017 0-0.034-0-0.051-0.001l0.002 0c-0.539 0-1.021-0.13-1.443-0.389-0.427-0.268-0.763-0.645-0.975-1.092l-0.007-0.016c-0.223-0.471-0.354-1.024-0.354-1.607 0-0.019 0-0.038 0-0.057l-0 0.003v-0.32c0-0.64 0.116-1.204 0.344-1.688 0.232-0.488 0.558-0.862 0.978-1.12 0.422-0.262 0.904-0.393 1.446-0.393 0.541 0 1.021 0.131 1.441 0.393 0.422 0.259 0.748 0.632 0.978 1.12 0.232 0.485 0.347 1.045 0.347 1.682v0.289zM45.336 51.775c0-0.681-0.122-1.199-0.366-1.554-0.217-0.322-0.581-0.531-0.993-0.531-0.018 0-0.037 0-0.055 0.001l0.003-0c-0.015-0.001-0.033-0.001-0.051-0.001-0.411 0-0.773 0.208-0.987 0.524l-0.003 0.004c-0.244 0.349-0.367 0.859-0.37 1.536v0.317c0 0.663 0.122 1.178 0.366 1.544s0.594 0.549 1.054 0.549c0.016 0.001 0.034 0.001 0.053 0.001 0.408 0 0.769-0.207 0.981-0.523l0.003-0.004c0.241-0.353 0.363-0.869 0.366-1.545v-0.317zM51.035 53.466c0.001-0.011 0.001-0.024 0.001-0.038 0-0.22-0.104-0.416-0.266-0.54l-0.002-0.001c-0.178-0.137-0.5-0.28-0.965-0.428-0.428-0.133-0.793-0.285-1.141-0.465l0.039 0.018c-0.739-0.399-1.108-0.937-1.108-1.612 0-0.35 0.097-0.664 0.294-0.937 0.2-0.277 0.485-0.492 0.853-0.648 0.372-0.154 0.789-0.232 1.249-0.232 0.465 0 0.878 0.084 1.242 0.255 0.363 0.168 0.645 0.402 0.843 0.71 0.203 0.305 0.305 0.655 0.305 1.044h-1.341c0-0.297-0.091-0.529-0.28-0.692-0.187-0.168-0.451-0.25-0.789-0.25-0.328 0-0.582 0.070-0.763 0.21-0.166 0.119-0.273 0.312-0.273 0.529 0 0.005 0 0.011 0 0.016v-0.001c0 0.212 0.107 0.389 0.317 0.532 0.213 0.142 0.529 0.276 0.942 0.401 0.762 0.229 1.317 0.514 1.666 0.853 0.347 0.338 0.523 0.762 0.523 1.268 0 0.562-0.213 1.006-0.64 1.326-0.425 0.319-0.997 0.478-1.717 0.478-0.5 0-0.955-0.091-1.367-0.274-0.386-0.164-0.705-0.422-0.937-0.746l-0.005-0.007c-0.201-0.3-0.32-0.669-0.32-1.067 0-0.014 0-0.029 0.001-0.043l-0 0.002h1.343c0 0.716 0.428 1.076 1.286 1.076 0.319 0 0.567-0.064 0.747-0.192 0.163-0.117 0.267-0.306 0.267-0.519 0-0.009-0-0.018-0.001-0.027l0 0.001zM58.184 49.757h-1.99v5.416h-1.341v-5.416h-1.961v-1.085h5.294v1.085zM62.862 52.355h-2.571v1.742h3.017v1.076h-4.357v-6.502h4.349v1.085h-3.010v1.55h2.572v1.048zM66.501 52.792h-1.067v2.38h-1.339v-6.502h2.415c0.768 0 1.361 0.172 1.777 0.514 0.418 0.343 0.625 0.826 0.625 1.451 0 0.443-0.096 0.815-0.29 1.112-0.215 0.312-0.511 0.555-0.857 0.701l-0.013 0.005 1.405 2.656v0.061h-1.437l-1.219-2.377zM65.434 51.707h1.082c0.335 0 0.594-0.084 0.78-0.253 0.171-0.168 0.277-0.402 0.277-0.66 0-0.018-0.001-0.035-0.001-0.052l0 0.002c0-0.308-0.087-0.549-0.262-0.724-0.174-0.175-0.439-0.264-0.8-0.264h-1.076v1.95zM73.55 52.882v2.29h-1.339v-6.502h2.536c0.488 0 0.917 0.090 1.286 0.268 0.372 0.178 0.658 0.433 0.858 0.763 0.198 0.328 0.299 0.701 0.299 1.12 0 0.637-0.219 1.14-0.655 1.509-0.436 0.366-1.038 0.55-1.809 0.55h-1.173zM73.55 51.797h1.196c0.355 0 0.625-0.084 0.808-0.25 0.189-0.168 0.282-0.405 0.282-0.715 0.001-0.014 0.001-0.031 0.001-0.048 0-0.28-0.107-0.534-0.282-0.725l0.001 0.001c-0.187-0.195-0.447-0.297-0.777-0.303h-1.228v2.042zM82.022 52.355h-2.571v1.742h3.017v1.076h-4.357v-6.502h4.349v1.085h-3.010v1.55h2.572v1.048zM88.238 49.757h-1.992v5.416h-1.339v-5.416h-1.964v-1.085h5.295v1.085zM92.916 52.355h-2.569v1.742h3.017v1.076h-4.358v-6.502h4.349v1.085h-3.008v1.55h2.571v1.048zM96.555 52.792h-1.067v2.38h-1.341v-6.502h2.417c0.768 0 1.359 0.172 1.777 0.514 0.416 0.343 0.625 0.826 0.625 1.451 0 0.443-0.097 0.815-0.29 1.112-0.216 0.312-0.512 0.555-0.859 0.701l-0.013 0.005 1.406 2.656v0.061h-1.437l-1.219-2.377zM95.488 51.707h1.080c0.335 0 0.596-0.084 0.78-0.253 0.172-0.168 0.279-0.402 0.279-0.662 0-0.017-0-0.034-0.001-0.051l0 0.002c0-0.308-0.087-0.549-0.264-0.724-0.172-0.175-0.439-0.264-0.799-0.264h-1.076v1.95zM103.359 53.467c0.001-0.011 0.001-0.025 0.001-0.038 0-0.221-0.105-0.417-0.268-0.541l-0.002-0.001c-0.178-0.137-0.5-0.28-0.965-0.428-0.428-0.133-0.793-0.285-1.141-0.465l0.039 0.018c-0.739-0.399-1.108-0.937-1.108-1.612 0-0.35 0.099-0.664 0.294-0.937 0.2-0.277 0.485-0.492 0.853-0.648 0.372-0.154 0.789-0.232 1.249-0.232 0.465 0 0.878 0.084 1.242 0.255 0.363 0.168 0.645 0.402 0.843 0.71 0.203 0.305 0.305 0.655 0.305 1.044h-1.341c0-0.297-0.091-0.529-0.28-0.692-0.187-0.168-0.451-0.25-0.789-0.25-0.328 0-0.582 0.070-0.763 0.21-0.167 0.119-0.274 0.312-0.274 0.53 0 0.005 0 0.010 0 0.015v-0.001c0 0.212 0.107 0.389 0.319 0.532 0.213 0.142 0.529 0.276 0.942 0.401 0.762 0.229 1.317 0.514 1.665 0.853 0.347 0.338 0.523 0.762 0.523 1.268 0 0.562-0.213 1.006-0.64 1.326-0.425 0.319-0.998 0.478-1.717 0.478-0.5 0-0.955-0.091-1.367-0.274-0.386-0.164-0.705-0.422-0.937-0.746l-0.004-0.007c-0.201-0.3-0.32-0.669-0.32-1.067 0-0.014 0-0.029 0.001-0.043l-0 0.002h1.343c0 0.716 0.428 1.076 1.286 1.076 0.319 0 0.567-0.064 0.745-0.192 0.163-0.117 0.269-0.306 0.269-0.52 0-0.009-0-0.017-0.001-0.026l0 0.001z"></path>
</symbol>
<symbol id="icon-client3" viewBox="0 0 69 64">
<path  d="M11.285 62.63c0.024 0 0.049 0.006 0.070 0.015 0.023 0.009 0.043 0.021 0.060 0.037l-0-0 0.332 0.317c-0.259 0.258-0.578 0.463-0.936 0.603-0.369 0.138-0.795 0.217-1.239 0.217-0.030 0-0.061-0-0.091-0.001l0.005 0c-0.427 0.008-0.85-0.061-1.245-0.203-0.364-0.132-0.676-0.326-0.94-0.571l0.002 0.002c-0.257-0.242-0.463-0.536-0.602-0.864l-0.006-0.017c-0.134-0.324-0.212-0.701-0.212-1.096 0-0.012 0-0.025 0-0.037v0.002c-0-0.017-0.001-0.038-0.001-0.058 0-0.776 0.336-1.473 0.871-1.954l0.002-0.002c0.283-0.248 0.623-0.443 0.997-0.575 0.41-0.137 0.846-0.206 1.285-0.201 0.024-0.001 0.051-0.001 0.079-0.001 0.398 0 0.781 0.067 1.137 0.191l-0.024-0.007c0.329 0.125 0.632 0.297 0.895 0.511l-0.279 0.338c-0.020 0.024-0.044 0.044-0.070 0.060l-0.001 0.001c-0.028 0.017-0.061 0.026-0.097 0.026-0.005 0-0.010-0-0.015-0.001l0.001 0c-0.045-0.002-0.087-0.015-0.123-0.036l0.001 0.001-0.148-0.091-0.209-0.116c-0.19-0.093-0.41-0.163-0.642-0.199l-0.013-0.002c-0.138-0.023-0.297-0.037-0.459-0.037-0.013 0-0.025 0-0.038 0h0.002c-0.009-0-0.020-0-0.030-0-0.32 0-0.626 0.056-0.91 0.158l0.019-0.006c-0.28 0.099-0.521 0.244-0.726 0.428l0.002-0.002c-0.207 0.195-0.366 0.427-0.469 0.678-0.107 0.255-0.169 0.552-0.169 0.863 0 0.011 0 0.022 0 0.033v-0.002c-0 0.011-0 0.024-0 0.037 0 0.314 0.062 0.614 0.175 0.888l-0.006-0.016c0.102 0.25 0.259 0.478 0.462 0.675 0.191 0.183 0.427 0.328 0.69 0.419 0.271 0.097 0.562 0.146 0.855 0.145 0.169 0.002 0.34-0.008 0.507-0.029 0.423-0.044 0.8-0.213 1.1-0.469l-0.003 0.002c0.043-0.035 0.097-0.056 0.157-0.058h0zM20.882 61.035c0 0.010 0 0.022 0 0.034 0 0.394-0.082 0.768-0.231 1.107l0.007-0.018c-0.148 0.344-0.359 0.635-0.622 0.87l-0.002 0.002c-0.276 0.245-0.603 0.44-0.963 0.565l-0.020 0.006c-0.377 0.128-0.812 0.202-1.263 0.202s-0.886-0.074-1.292-0.211l0.029 0.008c-0.377-0.134-0.701-0.329-0.978-0.577l0.003 0.002c-0.266-0.241-0.48-0.534-0.626-0.864l-0.006-0.016c-0.142-0.332-0.224-0.718-0.224-1.124s0.082-0.792 0.231-1.143l-0.007 0.019c0.142-0.329 0.357-0.629 0.632-0.884 0.277-0.242 0.61-0.43 0.975-0.553 0.377-0.131 0.811-0.206 1.263-0.206s0.886 0.075 1.291 0.214l-0.028-0.008c0.369 0.13 0.703 0.325 0.98 0.573 0.274 0.251 0.488 0.549 0.628 0.87 0.154 0.363 0.23 0.745 0.224 1.131zM20.011 61.035c0-0.014 0-0.031 0-0.047 0-0.308-0.058-0.602-0.165-0.873l0.006 0.016c-0.202-0.52-0.616-0.919-1.133-1.096l-0.013-0.004c-0.274-0.094-0.59-0.148-0.918-0.148s-0.644 0.054-0.939 0.154l0.021-0.006c-0.273 0.097-0.507 0.242-0.703 0.428l0.001-0.001c-0.194 0.184-0.347 0.41-0.445 0.663l-0.004 0.012c-0.1 0.268-0.158 0.578-0.158 0.902s0.058 0.634 0.164 0.92l-0.006-0.018c0.202 0.521 0.619 0.92 1.139 1.093l0.013 0.004c0.591 0.194 1.243 0.194 1.836 0 0.267-0.093 0.506-0.238 0.701-0.422 0.2-0.197 0.351-0.427 0.445-0.675 0.111-0.289 0.165-0.596 0.159-0.902zM27.43 61.981l0.087 0.201c0.034-0.072 0.063-0.137 0.096-0.201 0.037-0.078 0.073-0.143 0.113-0.206l-0.005 0.008 2.123-3.354c0.043-0.058 0.079-0.094 0.122-0.105 0.044-0.012 0.094-0.019 0.146-0.019 0.010 0 0.020 0 0.029 0.001l-0.001-0h0.628v5.455h-0.744v-4.18c-0.002-0.028-0.003-0.061-0.003-0.094s0.001-0.066 0.003-0.099l-0 0.004-2.138 3.401c-0.029 0.053-0.072 0.095-0.123 0.123l-0.002 0.001c-0.052 0.029-0.114 0.046-0.179 0.046-0.001 0-0.002 0-0.004 0h-0.12c-0.001 0-0.003 0-0.005 0-0.065 0-0.127-0.017-0.18-0.047l0.002 0.001c-0.053-0.029-0.095-0.071-0.123-0.122l-0.001-0.002-2.199-3.422v4.378h-0.718v-5.443h0.626c0.009-0.001 0.019-0.001 0.029-0.001 0.052 0 0.102 0.007 0.15 0.020l-0.004-0.001c0.052 0.023 0.091 0.059 0.116 0.105l2.168 3.357c0.039 0.056 0.075 0.12 0.105 0.188l0.003 0.007zM35.419 61.71v2.042h-0.829v-5.446h1.853c0.35-0.006 0.698 0.035 1.035 0.119 0.268 0.067 0.518 0.183 0.731 0.34 0.177 0.141 0.318 0.319 0.411 0.525l0.004 0.009c0.099 0.222 0.146 0.46 0.142 0.698 0 0.010 0 0.022 0 0.034 0 0.492-0.235 0.929-0.599 1.206l-0.004 0.003c-0.213 0.163-0.465 0.286-0.736 0.36-0.28 0.081-0.602 0.127-0.935 0.127-0.023 0-0.046-0-0.069-0.001l-1.002-0.015zM35.419 61.125h1.006c0.218 0.003 0.436-0.026 0.645-0.082 0.178-0.052 0.333-0.133 0.468-0.237l-0.003 0.002c0.233-0.193 0.381-0.483 0.381-0.807 0-0.004 0-0.009-0-0.013v0.001c0.001-0.017 0.002-0.038 0.002-0.059 0-0.14-0.031-0.272-0.087-0.39l0.002 0.006c-0.070-0.148-0.168-0.272-0.288-0.37l-0.002-0.002c-0.278-0.186-0.619-0.297-0.987-0.297-0.046 0-0.092 0.002-0.138 0.005l0.006-0h-1.006v2.245zM46.587 63.759h-0.655c-0.004 0-0.008 0-0.013 0-0.063 0-0.122-0.019-0.172-0.051l0.001 0.001c-0.046-0.032-0.084-0.075-0.109-0.125l-0.001-0.002-0.564-1.317h-2.839l-0.585 1.317c-0.052 0.105-0.158 0.177-0.281 0.177-0.003 0-0.006-0-0.008-0h-0.658l2.493-5.455h0.864l2.526 5.455zM42.473 61.734h2.344l-0.987-2.22c-0.076-0.168-0.137-0.338-0.187-0.512l-0.096 0.285c-0.029 0.087-0.061 0.168-0.091 0.232l-0.98 2.216zM50.178 58.331c0.049 0.023 0.091 0.056 0.123 0.096l3.636 4.113v-4.235h0.744v5.455h-0.414c-0.003 0-0.006 0-0.009 0-0.058 0-0.114-0.012-0.164-0.035l0.003 0.001c-0.052-0.026-0.096-0.060-0.132-0.1l-0-0-3.631-4.108c0.002 0.028 0.003 0.061 0.003 0.094s-0.001 0.066-0.003 0.098l0-0.004v4.053h-0.744v-5.455h0.44c0.050 0 0.102 0.009 0.149 0.026zM60.805 61.591v2.165h-0.831v-2.164l-2.298-3.285h0.744c0.005-0 0.012-0.001 0.018-0.001 0.059 0 0.115 0.017 0.161 0.047l-0.001-0.001c0.046 0.037 0.084 0.078 0.113 0.123l1.437 2.12c0.058 0.091 0.108 0.174 0.149 0.253 0.043 0.079 0.076 0.155 0.105 0.23l0.107-0.235c0.041-0.085 0.088-0.168 0.142-0.248l1.417-2.133c0.031-0.044 0.066-0.082 0.106-0.115l0.001-0.001c0.045-0.034 0.102-0.054 0.164-0.054 0.005 0 0.011 0 0.016 0.001l-0.001-0h0.751l-2.301 3.299zM27.019 49.152c0.361 0.040 0.727 0.072 1.097 0.101 5.606-2.179 10.348-5.745 13.635-10.252 3.285-4.507 4.969-9.757 4.841-15.092l-6.179-5.367c1.257 5.679 0.67 11.55-1.696 16.957s-6.415 10.133-11.698 13.653z"></path>
<path  d="M24.814 48.902l0.166 0.031c5.644-3.509 9.946-8.407 12.352-14.062s2.804-11.808 1.143-17.661l-8.8-7.645c3.558 6.284 4.992 13.318 4.129 20.282-0.859 6.964-3.977 13.571-8.991 19.055zM54.656 30.211c-1.495 5.862-5.126 11.148-10.354 15.075-1.427 1.086-3.038 2.105-4.734 2.981l-0.184 0.087c4.258-1.087 8.169-3.008 11.436-5.617s5.801-5.835 7.406-9.428l-3.569-3.098z"></path>
<path  d="M53.256 29.349l-5.080-4.415c-0.097 5.033-1.745 9.952-4.77 14.245-3.026 4.294-7.32 7.805-12.434 10.168h0.024c1.14 0 2.278-0.061 3.41-0.177 4.78-1.696 9.004-4.393 12.293-7.852 3.29-3.459 5.542-7.57 6.557-11.97zM25.548 6.339l-6.062-5.272c-5.419 1.819-10.079 5.018-13.371 9.176-3.291 4.16-5.062 9.085-5.079 14.132 0.020 5.577 2.181 10.99 6.141 15.38 3.957 4.389 9.489 7.508 15.717 8.859 5.559-5.885 8.814-13.157 9.292-20.759 0.477-7.604-1.848-15.139-6.638-21.516zM67.261 28.536c-0.021-6.616-3.057-12.957-8.442-17.637-5.387-4.678-12.684-7.316-20.3-7.336-0.017 0-0.036-0-0.056-0-3.661 0-7.181 0.61-10.461 1.733l0.227-0.068 37.112 32.244c1.21-2.627 1.916-5.699 1.92-8.936v-0.001z"></path>
</symbol>
<symbol id="icon-client2" viewBox="0 0 49 64">
<path  d="M21.063 3.612h-0.169c-0.258-0.016-0.517-0.022-0.775-0.028h-0.56c-0.489 0-0.987 0.012-1.482 0.037-0.017-0.001-0.036-0.002-0.056-0.002s-0.039 0.001-0.059 0.002l0.003-0c-4.752 0.277-9.164 1.466-13.152 3.393l0.208-0.091-0.532 0.256v27.252l1.246-0.423c1.093-0.375 2.257-0.714 3.462-1.026 2.977-0.796 6.403-1.276 9.934-1.323l0.029-0v3.58c-0.446 0.002-0.878 0.015-1.311 0.037h-0.103c-2.798 0.157-5.419 0.577-7.942 1.238l0.277-0.062c-3.468 0.882-6.508 2.101-9.333 3.661l0.201-0.102v-34.95c2.759-1.64 5.95-2.976 9.329-3.842l0.254-0.055c2.706-0.728 5.814-1.152 9.020-1.164h0.533c0.629 0.016 1.243 0.044 1.819 0.087 1.659 0.119 3.194 0.374 4.679 0.757l-0.18-0.039v3.524c-1.256-0.308-2.745-0.541-4.269-0.652l-0.091-0.005-0.089-0.007c-0.304-0.026-0.608-0.052-0.891-0.052zM27.265 7.214c0.782 0.060 1.591 0.089 2.41 0.089 3.379-0.013 6.648-0.457 9.763-1.279l-0.27 0.061c3.467-0.885 6.505-2.104 9.329-3.663l-0.202 0.102v34.326c-2.759 1.638-5.95 2.974-9.328 3.841l-0.254 0.055c-2.706 0.725-5.816 1.148-9.022 1.162h-0.008c-0.066 0.001-0.144 0.001-0.222 0.001-2.353 0-4.638-0.295-6.818-0.849l0.191 0.041v-34.55c0.529 0.123 1.074 0.235 1.628 0.329 0.91 0.154 1.868 0.266 2.802 0.335zM44.735 7.481l-1.246 0.418c-1.145 0.385-2.302 0.73-3.462 1.036-3.101 0.83-6.664 1.313-10.338 1.327h-0.008c-0.812 0-1.559-0.022-2.282-0.069l-0.993-0.065v28.033l0.853 0.074c0.79 0.070 1.606 0.105 2.428 0.105 2.901-0.013 5.706-0.397 8.379-1.107l-0.231 0.052c2.442-0.621 4.561-1.404 6.57-2.378l-0.203 0.089 0.533-0.256v-27.259z"></path>
<path  d="M3.369 51.953c-0.334-0.346-0.803-0.561-1.321-0.561-0.023 0-0.045 0-0.068 0.001l0.003-0c-0.008-0-0.018-0-0.028-0-0.278 0-0.544 0.055-0.786 0.155l0.014-0.005c-0.473 0.19-0.84 0.56-1.020 1.024l-0.004 0.012c-0.098 0.246-0.146 0.508-0.143 0.773v4.67c-0.012 0.329 0.052 0.656 0.183 0.958 0.111 0.24 0.27 0.453 0.468 0.626 0.186 0.156 0.405 0.271 0.64 0.332 0.228 0.063 0.463 0.096 0.698 0.096 0.26 0.002 0.517-0.053 0.753-0.162 0.701-0.311 1.181-1.001 1.182-1.803v-0.522h-1.222v0.416c0 0.008 0 0.018 0 0.028 0 0.139-0.026 0.273-0.074 0.395l0.003-0.007c-0.042 0.103-0.102 0.191-0.177 0.263l-0 0c-0.14 0.109-0.317 0.175-0.51 0.178h-0.001c-0.021 0.003-0.046 0.004-0.071 0.004-0.205 0-0.387-0.1-0.5-0.254l-0.001-0.002c-0.103-0.165-0.163-0.365-0.163-0.579 0-0.016 0-0.033 0.001-0.049l-0 0.002v-4.354c-0.007-0.241 0.044-0.48 0.15-0.698 0.113-0.173 0.305-0.286 0.525-0.286 0.026 0 0.051 0.002 0.075 0.005l-0.003-0c0.007-0 0.015-0 0.023-0 0.213 0 0.403 0.103 0.521 0.262l0.001 0.002c0.126 0.165 0.202 0.374 0.202 0.6 0 0.009-0 0.018-0 0.028v-0.001 0.404h1.209v-0.476c0-0.006 0-0.014 0-0.021 0-0.286-0.055-0.56-0.154-0.811l0.005 0.015c-0.096-0.255-0.235-0.474-0.409-0.658l0.001 0.001zM10.62 51.902c-0.372-0.317-0.857-0.511-1.387-0.514h-0.001c-0.249 0-0.496 0.046-0.729 0.132-0.504 0.181-0.901 0.551-1.114 1.023l-0.005 0.012c-0.123 0.284-0.185 0.593-0.178 0.905v4.478c-0.007 0.315 0.053 0.628 0.178 0.917 0.111 0.241 0.271 0.455 0.473 0.626 0.187 0.172 0.406 0.308 0.645 0.394 0.234 0.086 0.48 0.13 0.729 0.132 0.533-0.001 1.020-0.2 1.391-0.528l-0.002 0.002c0.194-0.175 0.352-0.388 0.46-0.626 0.126-0.288 0.186-0.602 0.178-0.917v-4.479c0-0.012 0-0.025 0-0.039 0-0.313-0.066-0.61-0.184-0.878l0.005 0.014c-0.114-0.256-0.269-0.473-0.459-0.654l-0.001-0.001zM10.050 57.937c0.002 0.021 0.003 0.045 0.003 0.070 0 0.227-0.094 0.432-0.245 0.579l-0 0c-0.154 0.13-0.355 0.209-0.575 0.209s-0.42-0.079-0.576-0.21l0.001 0.001c-0.152-0.146-0.246-0.351-0.246-0.578 0-0.025 0.001-0.050 0.003-0.074l-0 0.003v-4.479c-0.002-0.021-0.003-0.045-0.003-0.069 0-0.227 0.094-0.432 0.245-0.578l0-0c0.154-0.13 0.355-0.209 0.575-0.209s0.42 0.079 0.576 0.21l-0.001-0.001c0.151 0.146 0.246 0.351 0.246 0.577 0 0.025-0.001 0.049-0.003 0.073l0-0.003v4.48zM20.144 59.938v-8.48h-1.173l-1.542 4.489h-0.021l-1.554-4.487h-1.161v8.478h1.211v-5.157h0.022l1.185 3.646h0.604l1.196-3.646h0.021v5.157h1.211zM27.025 52.054c-0.186-0.209-0.422-0.369-0.684-0.464-0.249-0.084-0.535-0.132-0.832-0.132-0.016 0-0.033 0-0.049 0l0.002-0h-1.799v8.48h1.209v-3.312h0.622c0.378 0.017 0.752-0.063 1.090-0.231 0.277-0.156 0.502-0.376 0.659-0.641l0.004-0.008c0.139-0.225 0.234-0.476 0.277-0.738 0.042-0.267 0.066-0.575 0.066-0.888 0-0.027-0-0.053-0-0.080l0 0.004c0.012-0.406-0.028-0.815-0.118-1.211-0.086-0.305-0.24-0.568-0.446-0.779l0 0zM26.402 54.639c-0.006 0.162-0.046 0.313-0.115 0.448l0.003-0.006c-0.070 0.13-0.177 0.233-0.307 0.295l-0.004 0.002c-0.149 0.069-0.323 0.109-0.507 0.109-0.022 0-0.044-0.001-0.066-0.002l0.003 0h-0.551v-2.882h0.623c0.017-0.001 0.038-0.001 0.058-0.001 0.177 0 0.344 0.040 0.494 0.11l-0.007-0.003c0.125 0.073 0.222 0.18 0.281 0.308l0.002 0.004c0.066 0.149 0.102 0.31 0.106 0.473v0.564c0 0.197 0.012 0.401 0 0.582h-0.012zM32.748 51.458h-0.991l-1.868 8.48h1.209l0.354-1.822h1.647l0.356 1.822h1.209l-1.915-8.48zM31.633 56.961l0.594-3.073h0.022l0.591 3.073h-1.207zM40.554 56.566h-0.022l-1.824-5.108h-1.162v8.48h1.209v-5.099h0.025l1.846 5.098h1.136v-8.478h-1.207v5.108zM47.936 51.458l-0.972 3.372h-0.025l-0.972-3.372h-1.278l1.659 4.896v3.583h1.209v-3.583l1.659-4.895h-1.28zM0 62.332h0.582v1.633h0.395v-1.634h0.578v-0.335h-1.556v0.336zM4.895 61.996l-0.763 1.969h0.42l0.162-0.448h0.784l0.169 0.448h0.431l-0.783-1.969h-0.42zM4.833 63.186l0.267-0.73 0.267 0.73h-0.535zM9.733 63.239h0.455v0.254c-0.127 0.103-0.29 0.165-0.467 0.166h-0c-0.008 0.001-0.018 0.001-0.028 0.001-0.158 0-0.298-0.074-0.389-0.188l-0.001-0.001c-0.092-0.131-0.146-0.293-0.146-0.469 0-0.016 0-0.031 0.001-0.047l-0 0.002c0-0.438 0.19-0.657 0.566-0.657 0.013-0.001 0.028-0.002 0.043-0.002 0.194 0 0.357 0.133 0.402 0.313l0.001 0.003 0.389-0.076c-0.084-0.384-0.361-0.578-0.834-0.578-0.008-0-0.017-0-0.026-0-0.255 0-0.487 0.096-0.663 0.255l0.001-0.001c-0.177 0.174-0.286 0.416-0.286 0.684 0 0.026 0.001 0.051 0.003 0.077l-0-0.003c-0.001 0.014-0.001 0.030-0.001 0.046 0 0.265 0.096 0.507 0.255 0.694l-0.001-0.002c0.174 0.18 0.417 0.291 0.687 0.291 0.021 0 0.042-0.001 0.063-0.002l-0.003 0c0.010 0 0.021 0 0.032 0 0.31 0 0.592-0.12 0.803-0.315l-0.001 0.001v-0.775h-0.853v0.332zM14.674 61.996h-0.399v1.969h1.378v-0.335h-0.98v-1.634zM18.853 61.996h-0.399v1.969h0.399v-1.969zM22.938 63.311l-0.807-1.314h-0.385v1.969h0.369v-1.286l0.791 1.286h0.396v-1.969h-0.364v1.316zM26.63 63.098h0.981v-0.335h-0.981v-0.431h1.055v-0.336h-1.454v1.969h1.494v-0.335h-1.095v-0.533zM35.584 62.773h-0.775v-0.775h-0.394v1.968h0.394v-0.862h0.775v0.862h0.396v-1.969h-0.396v0.777zM39.298 63.098h0.985v-0.335h-0.985v-0.431h1.058v-0.336h-1.452v1.969h1.492v-0.335h-1.095v-0.533zM44.336 63.099c0.342-0.054 0.517-0.235 0.517-0.548 0.002-0.017 0.003-0.036 0.003-0.055 0-0.157-0.077-0.296-0.195-0.382l-0.001-0.001c-0.145-0.075-0.317-0.118-0.499-0.118-0.027 0-0.054 0.001-0.080 0.003l0.004-0h-0.834v1.968h0.396v-0.823h0.078c0.010-0.001 0.021-0.001 0.032-0.001 0.078 0 0.151 0.017 0.218 0.047l-0.003-0.001c0.058 0.036 0.106 0.085 0.14 0.144l0.43 0.625h0.473l-0.24-0.384c-0.108-0.192-0.255-0.351-0.431-0.469l-0.005-0.003zM43.937 62.826h-0.292v-0.494h0.311c0.025-0.002 0.054-0.003 0.083-0.003 0.114 0 0.223 0.018 0.325 0.052l-0.007-0.002c0.053 0.047 0.086 0.116 0.086 0.192 0 0.085-0.041 0.16-0.104 0.207l-0.001 0.001c-0.098 0.031-0.212 0.049-0.329 0.049-0.026 0-0.052-0.001-0.077-0.003l0.003 0zM48.135 63.098h0.98v-0.335h-0.98v-0.431h1.058v-0.336h-1.457v1.969h1.494v-0.335h-1.095v-0.533z"></path>
</symbol>
<symbol id="icon-client1" viewBox="0 0 56 64">
<path  d="M8.17 0l9.543 9.034-17.713-0.011v43.83h46.298v-16.758l9.532 9.024v-45.119h-47.66zM45.878 35.034l-27.057-25.614h27.057v25.614zM37.478 46.441h-30.152v-29.475h2.131v27.48h28.021v1.995zM14.448 58.689l-1.114 2.294-1.114-2.294h-0.934l1.626 3.058v1.782h0.844v-1.782l1.622-3.058h-0.93zM15.848 63.53l0.392-1.127h1.875l0.395 1.127h0.878l-1.831-4.841h-0.756l-1.827 4.841h0.874zM17.177 59.717l0.701 2.007h-1.403l0.701-2.008zM21.612 61.609c-0.114 0.171-0.183 0.381-0.183 0.606 0 0.003 0 0.005 0 0.008v-0c0 0.408 0.143 0.739 0.429 0.994 0.287 0.253 0.671 0.38 1.151 0.38 0.478 0 0.891-0.131 1.236-0.389l0.272 0.323h0.937l-0.711-0.842c0.279-0.381 0.418-0.87 0.418-1.467h-0.701c0 0.327-0.068 0.622-0.202 0.888l-0.936-1.103 0.33-0.24c0.2-0.136 0.368-0.304 0.498-0.499l0.004-0.007c0.096-0.157 0.153-0.347 0.153-0.55 0-0.003 0-0.006-0-0.008v0c0-0.006 0-0.012 0-0.019 0-0.298-0.131-0.566-0.338-0.748l-0.001-0.001c-0.215-0.195-0.502-0.314-0.817-0.314-0.017 0-0.034 0-0.050 0.001l0.002-0c-0.389 0-0.7 0.112-0.93 0.332-0.232 0.221-0.346 0.519-0.346 0.899 0 0.155 0.037 0.315 0.109 0.482 0.076 0.166 0.208 0.368 0.395 0.605-0.358 0.257-0.599 0.479-0.72 0.667zM23.796 62.679c-0.207 0.168-0.473 0.27-0.763 0.272h-0c-0.012 0.001-0.025 0.001-0.039 0.001-0.208 0-0.398-0.080-0.54-0.211l0.001 0.001c-0.134-0.132-0.217-0.315-0.217-0.518 0-0.010 0-0.019 0.001-0.028l-0 0.001c0-0.259 0.133-0.49 0.399-0.692l0.104-0.074 1.057 1.247zM22.928 60.534c-0.229-0.282-0.343-0.515-0.343-0.701 0-0.162 0.048-0.295 0.14-0.402 0.087-0.099 0.214-0.161 0.356-0.161 0.007 0 0.014 0 0.021 0l-0.001-0c0.005-0 0.011-0 0.017-0 0.134 0 0.255 0.052 0.345 0.137l-0-0c0.095 0.090 0.143 0.197 0.143 0.323 0 0.005 0 0.011 0 0.018 0 0.18-0.079 0.342-0.205 0.451l-0.001 0.001-0.104 0.082-0.369 0.253zM30.807 63.164c0.332-0.29 0.523-0.694 0.572-1.209h-0.837c-0.045 0.346-0.15 0.592-0.316 0.741-0.166 0.15-0.415 0.223-0.745 0.223-0.361 0-0.636-0.138-0.824-0.413-0.187-0.275-0.28-0.674-0.28-1.198v-0.428c0.005-0.517 0.105-0.907 0.3-1.174 0.197-0.268 0.479-0.402 0.844-0.402 0.315 0 0.553 0.078 0.715 0.231 0.163 0.154 0.266 0.404 0.306 0.752h0.837c-0.054-0.53-0.242-0.94-0.569-1.23-0.325-0.29-0.756-0.436-1.29-0.436-0.396 0-0.746 0.095-1.050 0.283-0.304 0.195-0.543 0.468-0.69 0.792l-0.005 0.011c-0.154 0.339-0.244 0.734-0.244 1.151 0 0.020 0 0.040 0.001 0.059l-0-0.003v0.452c0.007 0.445 0.090 0.836 0.249 1.174 0.161 0.336 0.387 0.596 0.678 0.78 0.296 0.182 0.636 0.272 1.021 0.272 0.552 0 0.994-0.143 1.326-0.432zM35.75 62.486c0.163-0.359 0.246-0.776 0.246-1.25v-0.268c0-0.014 0-0.032 0-0.049 0-0.432-0.093-0.841-0.261-1.21l0.008 0.018c-0.154-0.342-0.397-0.62-0.701-0.813l-0.008-0.004c-0.304-0.191-0.652-0.286-1.047-0.286s-0.743 0.095-1.050 0.289c-0.304 0.191-0.539 0.466-0.708 0.828-0.158 0.35-0.25 0.76-0.25 1.19 0 0.021 0 0.042 0.001 0.063l-0-0.003v0.272c0.003 0.463 0.086 0.871 0.252 1.226 0.169 0.355 0.406 0.629 0.712 0.822 0.308 0.191 0.658 0.286 1.050 0.286 0.398 0 0.748-0.095 1.051-0.286 0.305-0.193 0.541-0.468 0.704-0.825zM34.85 59.749c0.204 0.286 0.305 0.699 0.305 1.235v0.252c0 0.545-0.101 0.96-0.302 1.243-0.199 0.285-0.485 0.426-0.858 0.426-0.010 0-0.023 0.001-0.035 0.001-0.343 0-0.645-0.171-0.826-0.433l-0.002-0.003c-0.207-0.29-0.309-0.701-0.309-1.234v-0.279c0.004-0.52 0.109-0.923 0.312-1.206 0.182-0.261 0.481-0.43 0.819-0.43 0.012 0 0.025 0 0.037 0.001l-0.002-0c0.373 0 0.66 0.143 0.862 0.429z"></path>
</symbol>
<symbol id="icon-astronaut" viewBox="0 0 64 64">
<path fill="#2196f3" style="fill: var(--color1, #2196f3)" d="M63.948 9.048c-0.127-0.382-0.455-0.664-0.854-0.724l-0.006-0.001-3.822-0.556-1.71-3.462c-0.358-0.73-1.554-0.73-1.912 0l-1.71 3.462-3.822 0.556c-0.52 0.077-0.914 0.521-0.914 1.056 0 0.299 0.123 0.569 0.321 0.763l2.767 2.696-0.653 3.805c-0.069 0.4 0.096 0.805 0.423 1.044 0.332 0.24 0.765 0.271 1.125 0.080l3.418-1.797 3.418 1.797c0.144 0.077 0.314 0.122 0.495 0.122 0.59 0 1.068-0.478 1.068-1.068 0-0.063-0.005-0.125-0.016-0.185l0.001 0.006-0.653-3.805 2.766-2.696c0.199-0.194 0.322-0.465 0.322-0.765 0-0.118-0.019-0.231-0.054-0.337l0.002 0.008zM59.023 11.703c-0.251 0.244-0.366 0.599-0.306 0.944l0.381 2.228-2-1.051c-0.144-0.078-0.315-0.123-0.497-0.123s-0.353 0.046-0.503 0.126l0.006-0.003-2 1.051 0.381-2.228c0.010-0.055 0.016-0.117 0.016-0.181 0-0.299-0.123-0.569-0.321-0.763l-0-0-1.621-1.579 2.238-0.325c0.347-0.050 0.647-0.269 0.804-0.584l1-2.026 1 2.026c0.155 0.315 0.455 0.534 0.804 0.584l2.238 0.325-1.618 1.579zM52.267 41.044h-2.133v2.134h2.133v-2.134zM52.267 45.312h-2.133v2.132h2.133v-2.132zM54.4 43.178h-2.133v2.133h2.133v-2.133zM50.134 43.178h-2.134v2.133h2.134v-2.133zM44.8 52.778h-2.133v2.133h2.133v-2.133zM44.8 57.045h-2.133v2.133h2.133v-2.133zM46.934 54.912h-2.134v2.133h2.134v-2.134zM42.667 54.912h-2.134v2.133h2.134v-2.134zM32 48.512h-2.133v2.133h2.133v-2.134zM32 52.778h-2.133v2.133h2.133v-2.133zM34.133 50.644h-2.133v2.134h2.133v-2.134zM29.867 50.644h-2.134v2.134h2.134v-2.134zM11.733 12.244h-2.133v2.133h2.133v-2.133zM11.733 16.511h-2.133v2.133h2.133v-2.132zM13.866 14.377h-2.133v2.134h2.133v-2.134zM9.6 14.377h-2.134v2.134h2.134v-2.134z"></path>
<path  d="M49.429 28.319c-0.56-0.753-1.397-1.272-2.358-1.407l-0.019-0.002c-0.153-0.023-0.329-0.037-0.508-0.037-0.821 0-1.577 0.279-2.179 0.747l0.008-0.006-2.506 1.919-3.795 2.834-2.715-1.082c4.842-2.172 8.227-7.016 8.227-12.64 0-7.646-6.245-13.867-13.922-13.867s-13.923 6.221-13.923 13.867c0 2.771 0.829 5.349 2.24 7.517l-5.537-0.048c-0.017 0-0.031 0.009-0.047 0.009-0.113 0.006-0.219 0.028-0.318 0.065l0.007-0.002c-0.026 0.009-0.052 0.015-0.077 0.026-0.013 0.006-0.026 0.006-0.038 0.013l-6.466 3.192c-0.001 0-0.003 0-0.003 0.002l-3.786 1.82c-0.049 0.022-0.090 0.046-0.129 0.072l0.003-0.002c-0.964 0.647-1.589 1.733-1.589 2.965 0 0.594 0.145 1.154 0.403 1.647l-0.009-0.020c0.439 0.847 1.185 1.484 2.087 1.77l0.025 0.007c0.321 0.105 0.691 0.166 1.075 0.166 0.616 0 1.196-0.157 1.701-0.432l-0.019 0.009 2.776-1.476 4.528-2.339 2.714-0.016-10.884 10.831c0 0.002-0.002 0.002-0.003 0.003l-2.677 2.666c-0.606 0.598-0.981 1.429-0.981 2.347 0 0.003 0 0.006 0 0.010v-0.001c0.004 1.839 1.495 3.328 3.334 3.328 0.002 0 0.003 0 0.005 0h-0c0.856 0 1.709-0.325 2.361-0.971l2.629-2.618 3.482-2.599 1.801 1.794-6.203 6.177c-0.606 0.598-0.981 1.429-0.981 2.347 0 0.003 0 0.006 0 0.009v-0c0 0.89 0.347 1.727 0.981 2.358 0.603 0.599 1.434 0.97 2.352 0.97 0.002 0 0.005 0 0.007 0h-0c0.855 0 1.71-0.324 2.361-0.97l8.976-8.944c0.014-0.013 0.032-0.017 0.045-0.031l10.331-11.316 6.942 0.987c0.050 0.007 0.101 0.011 0.151 0.011 0.128 0 0.253-0.031 0.375-0.077 0.035-0.013 0.065-0.030 0.099-0.047 0.038-0.019 0.079-0.030 0.115-0.055l6.426-4.266c0.024-0.016 0.037-0.042 0.059-0.059 0.026-0.020 0.058-0.028 0.081-0.051l2.542-2.382c0.695-0.651 1.128-1.575 1.128-2.599 0-0.8-0.264-1.539-0.71-2.133l0.007 0.009zM4.261 35.54c-0.196 0.108-0.43 0.172-0.679 0.172-0.156 0-0.307-0.025-0.447-0.072l0.010 0.003c-0.588-0.186-1.007-0.728-1.007-1.367 0-0.471 0.227-0.889 0.578-1.149l0.004-0.003 2.628-1.264 0.633 1.849 0.265 0.777-1.984 1.054zM11.255 31.885l-3.097 1.6-0.51-1.493-0.368-1.073 4.054-2.001-0.080 2.968zM41.454 18.644c0 1.837-0.439 3.569-1.198 5.119l-8.363-3.799c-0.087-1.15-0.685-2.145-1.565-2.767l-0.012-0.008 2.928-9.722c4.754 1.513 8.208 5.949 8.208 11.176zM17.876 18.644c0-6.47 5.288-11.734 11.789-11.734 0.506 0 1 0.043 1.49 0.105l-2.864 9.506c-0.038 0-0.074-0.012-0.114-0.012-0.001 0-0.001 0-0.002 0-2.064 0-3.738 1.671-3.743 3.733v0c0.006 2.063 1.68 3.733 3.744 3.733 0 0 0.001 0 0.001 0h-0c1.39 0 2.589-0.766 3.237-1.889l7.726 3.509c-2.15 2.894-5.59 4.78-9.474 4.78-6.501 0-11.789-5.264-11.789-11.733zM29.789 20.244c0 0.882-0.724 1.6-1.613 1.6-0.001 0-0.002 0-0.003 0-0.885 0-1.604-0.715-1.608-1.6v-0c0-0.882 0.722-1.6 1.611-1.6s1.612 0.718 1.612 1.6zM4.929 50.292c-0.22 0.218-0.522 0.352-0.856 0.352s-0.635-0.134-0.854-0.35l0 0c-0.217-0.215-0.352-0.514-0.352-0.844s0.135-0.629 0.352-0.844l0-0 1.925-1.917 1.704 1.696-1.917 1.909zM11.356 57.759c-0.22 0.218-0.522 0.352-0.856 0.352s-0.634-0.134-0.854-0.35l0 0c-0.218-0.215-0.352-0.514-0.352-0.844s0.135-0.629 0.352-0.844l0-0 1.925-1.918 1.703 1.695-1.919 1.911zM18.32 50.822l-0.003 0.003-3.529 3.52-1.704-1.695 3.53-3.514c0.080-0.080 0.13-0.176 0.179-0.272 0.014-0.027 0.040-0.051 0.052-0.080 0.033-0.082 0.038-0.171 0.051-0.257 0.006-0.049 0.027-0.095 0.027-0.146 0-0.070-0.026-0.14-0.040-0.21-0.013-0.064-0.013-0.129-0.038-0.191-0.049-0.106-0.11-0.196-0.184-0.276l0.001 0.001c-0.020-0.024-0.027-0.053-0.049-0.076h-0.002s0-0.003-0.002-0.005l-3.214-3.2c-0.034-0.034-0.078-0.048-0.116-0.077-0.051-0.042-0.108-0.080-0.168-0.112l-0.005-0.003c-0.053-0.025-0.115-0.047-0.18-0.063l-0.007-0.001c-0.060-0.019-0.13-0.033-0.203-0.040l-0.004-0c-0.014-0.001-0.030-0.001-0.046-0.001-0.051 0-0.102 0.004-0.151 0.011l0.006-0.001c-0.071 0.009-0.138 0.018-0.208 0.041-0.068 0.021-0.127 0.055-0.188 0.090-0.040 0.022-0.085 0.030-0.122 0.058l-3.547 2.648-1.801-1.795 4.798-4.773 8.72 8.578-1.855 1.838zM31.958 36.788c-0.031-0.005-0.060 0.007-0.091 0.005-0.016-0.001-0.035-0.001-0.053-0.001-0.063 0-0.124 0.005-0.183 0.016l0.006-0.001c-0.139 0.022-0.264 0.070-0.373 0.14l0.004-0.002c-0.059 0.037-0.113 0.074-0.166 0.123-0.026 0.022-0.057 0.033-0.080 0.059l-9.395 10.291-8.656-8.513 5.666-5.637c0.193-0.193 0.312-0.46 0.312-0.754 0-0.59-0.478-1.068-1.068-1.068-0.001 0-0.002 0-0.003 0h0l-4.438 0.026 0.056-3.215 6.208 0.053c2.527 2.593 6.054 4.202 9.957 4.202 0.002 0 0.004 0 0.007 0h-0c0.875 0 1.728-0.091 2.559-0.245 0.080 0.064 0.159 0.128 0.259 0.169l4.82 1.92 0.304 1.517 0.357 1.771-6.006-0.855zM40.040 37.145l-0.626-3.116 2.893-2.16 1.893 2.513-4.16 2.763zM47.547 31.483l-1.675 1.57-1.862-2.472 1.662-1.274c0.311-0.239 0.702-0.336 1.086-0.286 0.386 0.055 0.728 0.256 0.96 0.569 0.176 0.235 0.282 0.531 0.282 0.851 0 0.411-0.174 0.782-0.452 1.042l-0.001 0.001z"></path>
<path  d="M27.205 37.088l-4.286-4.267c-0.193-0.192-0.459-0.311-0.752-0.311s-0.56 0.119-0.753 0.311l-4.285 4.267c-0.193 0.194-0.312 0.461-0.312 0.756s0.119 0.562 0.312 0.756l-0-0 4.284 4.267c0.193 0.192 0.459 0.311 0.753 0.311s0.56-0.119 0.753-0.311v0l4.286-4.267c0.194-0.193 0.314-0.461 0.314-0.756s-0.12-0.563-0.314-0.756l-0-0zM22.167 40.606l-2.774-2.761 2.773-2.762 2.775 2.761-2.775 2.761zM34.329 10.141l-0.516 2.072c0.143 0.036 3.475 0.903 3.475 4.297h2.134c0-4.034-3.332-5.93-5.093-6.369zM39.422 18.644h-2.134v2.133h2.134v-2.133z"></path>
</symbol>
<symbol id="icon-antenna" viewBox="0 0 64 64">
<path  d="M61.546 44.196l-16.887-17.010 1.874-9.232c0.45 0.181 0.971 0.288 1.516 0.292h0.015c0.015 0 0.033 0 0.051 0 2.385 0 4.318-1.933 4.318-4.318s-1.933-4.318-4.318-4.318c-2.385 0-4.318 1.933-4.318 4.318 0 0.519 0.092 1.016 0.259 1.477l-0.010-0.030-9.92 1.211-16.181-16.266c-0.192-0.196-0.458-0.318-0.753-0.32h-0c-0.28 0.002-0.549 0.113-0.747 0.311l-3.024 3.008c-0.193 0.193-0.312 0.46-0.312 0.754s0.119 0.561 0.312 0.754v0l1.627 1.65c-2.286 4.125-3.631 9.044-3.631 14.278 0 8.211 3.312 15.649 8.672 21.050l-0.002-0.002c0.086 0.082 0.185 0.147 0.293 0.195-0.064 0.328-0.102 0.706-0.104 1.092v12.376h-12.8c-2.945 0.003-5.331 2.389-5.335 5.333v2.133c0 0.59 0.478 1.067 1.067 1.067h49.067c0.589 0 1.066-0.477 1.066-1.067v-2.133c-0.004-2.944-2.389-5.329-5.333-5.333h-12.8v-5.484c2.005 0.421 4.048 0.635 6.097 0.64 5.16-0.006 10.009-1.326 14.234-3.644l-0.154 0.078 1.637 1.646c0.197 0.202 0.469 0.317 0.752 0.32 0.28-0.002 0.549-0.113 0.747-0.311l3.024-3.008c0.193-0.193 0.312-0.46 0.312-0.754s-0.119-0.561-0.312-0.754v0zM46.56 12.466c0.386-0.384 0.917-0.621 1.504-0.621 1.178 0 2.133 0.955 2.133 2.133s-0.955 2.133-2.133 2.133c-0 0-0 0-0 0h-0.007c-1.173-0.006-2.122-0.959-2.122-2.133 0-0.591 0.24-1.126 0.629-1.512l0-0h-0.004zM44.048 19.474l-1.197 5.892-2.351-2.365 3.547-3.526zM42.837 17.67l-3.84 3.818-2.971-2.987 6.811-0.831zM48.008 57.6c1.767 0 3.2 1.433 3.2 3.2v0 1.067h-46.933v-1.067c0-1.767 1.433-3.2 3.2-3.2v0h40.533zM33.075 53.333v2.134h-10.667v-2.134h10.667zM22.408 51.2v-8.107c0-2.587 2.393-4.693 5.333-4.693s5.334 2.106 5.334 4.693v8.107h-10.667zM35.208 47.808v-4.715c0-3.764-3.349-6.826-7.467-6.826-0.035-0.001-0.076-0.001-0.117-0.001-2.705 0-5.080 1.413-6.427 3.542l-0.018 0.031c-4.72-4.963-7.623-11.693-7.623-19.1 0-4.628 1.133-8.992 3.138-12.828l-0.073 0.153 37.204 37.417c-3.645 1.894-7.959 3.004-12.532 3.004-2.157 0-4.257-0.247-6.272-0.715l0.186 0.036zM57.786 46.44l-42.114-42.362 1.509-1.504 15.87 15.96c0.007 0 0.012 0.014 0.019 0.019l26.229 26.383-1.513 1.504z"></path>
<path fill="#2196f3" style="fill: var(--color1, #2196f3)" d="M27.751 40.533h-0.009c-0.002 0-0.003 0-0.005 0-1.767 0-3.2 1.433-3.2 3.2 0 1.766 1.43 3.197 3.195 3.2h0.009c0.001 0 0.003 0 0.005 0 1.767 0 3.2-1.433 3.2-3.2 0-1.766-1.43-3.197-3.195-3.2h-0zM28.497 44.49c-0.193 0.192-0.459 0.311-0.753 0.311-0.589 0-1.067-0.478-1.067-1.067 0-0.588 0.476-1.065 1.064-1.067h0c0.587 0.003 1.061 0.479 1.061 1.066 0 0.296-0.12 0.563-0.314 0.756l-0 0h0.009z"></path>
</symbol>
<symbol id="icon-close" viewBox="0 0 32 32">
<path fill="#fff" style="fill: var(--color1, #fff)" d="M32 16c0 8.837-7.163 16-16 16s-16-7.163-16-16c0-8.837 7.163-16 16-16s16 7.163 16 16z"></path>
<path fill="none" stroke-linejoin="miter" stroke-linecap="butt" stroke-miterlimit="4" stroke-width="1.0667" d="M31.467 16c0 8.542-6.925 15.467-15.467 15.467s-15.467-6.925-15.467-15.467c0-8.542 6.925-15.467 15.467-15.467s15.467 6.925 15.467 15.467z"></path>
<path  d="M22.4 10.782l-1.182-1.182-4.685 4.685-4.685-4.685-1.182 1.182 4.685 4.685-4.685 4.685 1.182 1.182 4.685-4.685 4.685 4.685 1.182-1.182-4.685-4.685 4.685-4.685z"></path>
</symbol>
<symbol id="icon-email" viewBox="0 0 32 32">
<path d="M26.667 5.333h-21.333c-1.467 0-2.652 1.2-2.652 2.667l-0.014 16c0 1.467 1.2 2.667 2.667 2.667h21.333c1.467 0 2.667-1.2 2.667-2.667v-16c0-1.467-1.2-2.667-2.667-2.667zM26.133 11.001l-9.426 5.892c-0.201 0.126-0.446 0.2-0.708 0.2s-0.506-0.075-0.713-0.204l0.006 0.003-9.426-5.892c-0.336-0.201-0.557-0.562-0.557-0.975 0-0.625 0.507-1.132 1.132-1.132 0.233 0 0.449 0.070 0.629 0.19l-0.004-0.003 8.933 5.586 8.933-5.588c0.176-0.118 0.392-0.188 0.624-0.188 0.625 0 1.132 0.507 1.132 1.132 0 0.413-0.221 0.775-0.552 0.972l-0.005 0.003z"></path>
</symbol>
<symbol id="icon-phone" viewBox="0 0 32 32">
<path d="M24.882 19.774l-3.268-0.373c-0.090-0.011-0.194-0.018-0.3-0.018-0.707 0-1.347 0.287-1.81 0.75l-2.368 2.368c-3.669-1.894-6.585-4.81-8.427-8.372l-0.051-0.108 2.382-2.377c0.463-0.463 0.75-1.103 0.75-1.81 0-0.106-0.006-0.21-0.019-0.312l0.001 0.012-0.373-3.243c-0.155-1.287-1.24-2.276-2.557-2.276-0.001 0-0.002 0-0.003 0h-2.226c-1.454 0-2.663 1.209-2.574 2.661 0.683 10.987 9.47 19.762 20.444 20.444 1.452 0.089 2.663-1.12 2.663-2.574v-2.226c0-0.004 0-0.008 0-0.012 0-1.308-0.985-2.386-2.253-2.532l-0.012-0.001z"></path>
</symbol>
<symbol id="icon-person" viewBox="0 0 32 32">
<path d="M16 16c2.946 0 5.333-2.388 5.333-5.333s-2.388-5.333-5.333-5.333v0c-2.946 0-5.333 2.388-5.333 5.333s2.388 5.333 5.333 5.333v0zM16 18.667c-3.561 0-10.667 1.787-10.667 5.333v1.333c0 0.732 0.599 1.333 1.333 1.333h18.667c0.732 0 1.333-0.601 1.333-1.333v-1.333c0-3.547-7.108-5.333-10.667-5.333z"></path>
</symbol>
<symbol id="icon-check" viewBox="0 0 34 32">
<path fill="#2196f3" style="fill: var(--color1, #2196f3)" d="M4.267 0h25.6c2.356 0 4.267 1.91 4.267 4.267v23.467c0 2.356-1.91 4.267-4.267 4.267h-25.6c-2.356 0-4.267-1.91-4.267-4.267v-23.467c0-2.356 1.91-4.267 4.267-4.267z"></path>
<path fill="#fff" style="fill: var(--color2, #fff); stroke: var(--color2, #fff)" stroke="#fff" stroke-linejoin="miter" stroke-linecap="butt" stroke-miterlimit="4" stroke-width="0.4267" d="M8.442 16.538l-0.147-0.141-0.147 0.139-2.057 1.95 0.162 0.156 7.605 7.253 0.147-0.141 16.171-15.426-0.162-0.154-2.029-1.935-0.147 0.141-13.98 13.325-5.417-5.167z"></path>
</symbol>
<symbol id="icon-send" viewBox="0 0 32 32">
<path fill="#fff" style="fill: var(--color1, #fff)" d="M32 0l-32 18 10.227 3.787 15.773-14.787-11.997 16.187 0.009 0.003-0.012-0.003v8.813l5.735-6.691 7.267 2.691 4.999-28z"></path>
</symbol>
</defs>
</svg>
